<svg xmlns="http://www.w3.org/2000/svg" xmlns:xlink="http://www.w3.org/1999/xlink" width="256" zoomAndPan="magnify" viewBox="0 0 192 30.000001" height="40" preserveAspectRatio="xMidYMid meet" version="1.0"><defs><g/><clipPath id="506f178148"><path d="M 136.140625 0.339844 L 147 0.339844 L 147 11.226562 L 136.140625 11.226562 Z M 136.140625 0.339844 " clip-rule="nonzero"/></clipPath><clipPath id="42f2144925"><path d="M 31 7 L 38.839844 7 L 38.839844 14 L 31 14 Z M 31 7 " clip-rule="nonzero"/></clipPath><clipPath id="b25eb8ec8e"><path d="M 21 15 L 33 15 L 33 28.644531 L 21 28.644531 Z M 21 15 " clip-rule="nonzero"/></clipPath><clipPath id="91daa4dfdb"><path d="M 29 15 L 38.839844 15 L 38.839844 26 L 29 26 Z M 29 15 " clip-rule="nonzero"/></clipPath><clipPath id="f1b93c236c"><path d="M 14 0.339844 L 22 0.339844 L 22 7 L 14 7 Z M 14 0.339844 " clip-rule="nonzero"/></clipPath><clipPath id="1a40e824ab"><path d="M 12.710938 7 L 17 7 L 17 11 L 12.710938 11 Z M 12.710938 7 " clip-rule="nonzero"/></clipPath></defs><g fill="#8174a0" fill-opacity="1"><g transform="translate(42.244155, 26.974478)"><g><path d="M -0.484375 0 L -0.484375 -0.359375 C -0.0859375 -0.492188 0.296875 -0.753906 0.671875 -1.140625 C 1.046875 -1.523438 1.453125 -2.25 1.890625 -3.3125 L 7.421875 -17.046875 C 7.585938 -17.492188 7.570312 -17.929688 7.375 -18.359375 L 7.109375 -18.953125 L 9.21875 -19.90625 L 16.140625 -3.296875 C 16.578125 -2.242188 16.96875 -1.523438 17.3125 -1.140625 C 17.65625 -0.753906 17.976562 -0.492188 18.28125 -0.359375 L 18.28125 0 L 13.921875 0 L 13.921875 -0.359375 C 14.347656 -0.492188 14.523438 -0.753906 14.453125 -1.140625 C 14.378906 -1.523438 14.117188 -2.242188 13.671875 -3.296875 L 11.953125 -7.421875 L 4.015625 -7.421875 L 2.359375 -3.3125 C 1.648438 -1.53125 1.765625 -0.546875 2.703125 -0.359375 L 2.703125 0 Z M 4.1875 -7.84375 L 11.78125 -7.84375 L 7.9375 -17.09375 Z M 4.1875 -7.84375 "/></g></g></g><g fill="#8174a0" fill-opacity="1"><g transform="translate(58.633866, 26.974478)"><g><path d="M 0.90625 0 L 0.90625 -0.359375 C 1.332031 -0.492188 1.625 -0.773438 1.78125 -1.203125 C 1.945312 -1.640625 2.03125 -2.429688 2.03125 -3.578125 L 2.03125 -10.046875 C 2.03125 -10.703125 1.984375 -11.191406 1.890625 -11.515625 C 1.804688 -11.847656 1.6875 -12.085938 1.53125 -12.234375 C 1.375 -12.378906 1.164062 -12.507812 0.90625 -12.625 L 0.90625 -12.9375 L 3.96875 -14.28125 L 4.21875 -14.09375 L 4.21875 -10.578125 C 4.445312 -11.117188 4.742188 -11.625 5.109375 -12.09375 C 5.472656 -12.5625 5.859375 -12.945312 6.265625 -13.25 C 6.703125 -13.5625 7.175781 -13.804688 7.6875 -13.984375 C 8.207031 -14.171875 8.804688 -14.265625 9.484375 -14.265625 C 10.046875 -14.265625 10.488281 -14.195312 10.8125 -14.0625 C 11.144531 -13.925781 11.3125 -13.738281 11.3125 -13.5 C 11.3125 -13.195312 11.164062 -12.851562 10.875 -12.46875 C 10.582031 -12.082031 10.179688 -11.890625 9.671875 -11.890625 C 9.296875 -11.890625 8.820312 -11.957031 8.25 -12.09375 C 7.675781 -12.238281 6.976562 -12.4375 6.15625 -12.6875 C 5.894531 -12.5 5.617188 -12.210938 5.328125 -11.828125 C 5.035156 -11.441406 4.789062 -11.015625 4.59375 -10.546875 C 4.394531 -10.078125 4.28125 -9.617188 4.25 -9.171875 L 4.21875 -9.171875 L 4.21875 -3.578125 C 4.21875 -2.429688 4.296875 -1.640625 4.453125 -1.203125 C 4.617188 -0.773438 4.914062 -0.492188 5.34375 -0.359375 L 5.34375 0 Z M 0.90625 0 "/></g></g></g><g fill="#8174a0" fill-opacity="1"><g transform="translate(68.810442, 26.974478)"><g><path d="M 0.765625 0 L 0.765625 -0.3125 L 8.640625 -13.640625 L 4.953125 -13.640625 C 4.046875 -13.640625 3.320312 -13.414062 2.78125 -12.96875 C 2.238281 -12.519531 1.734375 -11.691406 1.265625 -10.484375 L 1.015625 -10.546875 L 1.515625 -14.0625 L 11.078125 -14.0625 L 11.078125 -13.75 L 3.265625 -0.421875 L 7.375 -0.421875 C 8.320312 -0.421875 9.128906 -0.703125 9.796875 -1.265625 C 10.460938 -1.828125 10.890625 -2.789062 11.078125 -4.15625 L 11.328125 -4.15625 L 11.25 0 Z M 0.765625 0 "/></g></g></g><g fill="#8174a0" fill-opacity="1"><g transform="translate(79.352502, 26.974478)"><g><path d="M 6.125 0.28125 C 4.644531 0.28125 3.554688 -0.164062 2.859375 -1.0625 C 2.171875 -1.96875 1.828125 -3.226562 1.828125 -4.84375 L 1.828125 -10.046875 C 1.828125 -10.703125 1.785156 -11.191406 1.703125 -11.515625 C 1.617188 -11.847656 1.492188 -12.085938 1.328125 -12.234375 C 1.171875 -12.378906 0.960938 -12.507812 0.703125 -12.625 L 0.703125 -12.9375 L 3.765625 -14.28125 L 4.015625 -14.09375 L 4.015625 -5.34375 C 4.015625 -3.75 4.257812 -2.578125 4.75 -1.828125 C 5.238281 -1.078125 6.046875 -0.703125 7.171875 -0.703125 C 7.992188 -0.703125 8.78125 -0.929688 9.53125 -1.390625 C 10.28125 -1.847656 10.972656 -2.414062 11.609375 -3.09375 L 11.609375 -10.046875 C 11.609375 -10.703125 11.566406 -11.191406 11.484375 -11.515625 C 11.398438 -11.847656 11.28125 -12.085938 11.125 -12.234375 C 10.96875 -12.378906 10.753906 -12.507812 10.484375 -12.625 L 10.484375 -12.9375 L 13.5625 -14.28125 L 13.8125 -14.09375 L 13.8125 -3.578125 C 13.8125 -2.429688 13.890625 -1.640625 14.046875 -1.203125 C 14.203125 -0.773438 14.5 -0.492188 14.9375 -0.359375 L 14.9375 0 L 12.546875 0 C 12.242188 0 12.007812 -0.0820312 11.84375 -0.25 C 11.6875 -0.414062 11.609375 -0.707031 11.609375 -1.125 L 11.609375 -2.5625 C 10.898438 -1.8125 10.070312 -1.148438 9.125 -0.578125 C 8.175781 -0.00390625 7.175781 0.28125 6.125 0.28125 Z M 6.125 0.28125 "/></g></g></g><g fill="#8174a0" fill-opacity="1"><g transform="translate(93.63368, 26.974478)"><g/></g></g><g fill="#8174a0" fill-opacity="1"><g transform="translate(97.906381, 26.974478)"><g><path d="M -0.484375 0 L -0.484375 -0.359375 C -0.0859375 -0.492188 0.296875 -0.753906 0.671875 -1.140625 C 1.046875 -1.523438 1.453125 -2.25 1.890625 -3.3125 L 7.421875 -17.046875 C 7.585938 -17.492188 7.570312 -17.929688 7.375 -18.359375 L 7.109375 -18.953125 L 9.21875 -19.90625 L 16.140625 -3.296875 C 16.578125 -2.242188 16.96875 -1.523438 17.3125 -1.140625 C 17.65625 -0.753906 17.976562 -0.492188 18.28125 -0.359375 L 18.28125 0 L 13.921875 0 L 13.921875 -0.359375 C 14.347656 -0.492188 14.523438 -0.753906 14.453125 -1.140625 C 14.378906 -1.523438 14.117188 -2.242188 13.671875 -3.296875 L 11.953125 -7.421875 L 4.015625 -7.421875 L 2.359375 -3.3125 C 1.648438 -1.53125 1.765625 -0.546875 2.703125 -0.359375 L 2.703125 0 Z M 4.1875 -7.84375 L 11.78125 -7.84375 L 7.9375 -17.09375 Z M 4.1875 -7.84375 "/></g></g></g><g fill="#8174a0" fill-opacity="1"><g transform="translate(114.296094, 26.974478)"><g><path d="M 0.90625 0 L 0.90625 -0.359375 C 1.332031 -0.492188 1.625 -0.773438 1.78125 -1.203125 C 1.945312 -1.640625 2.03125 -2.429688 2.03125 -3.578125 L 2.03125 -10.046875 C 2.03125 -10.703125 1.984375 -11.191406 1.890625 -11.515625 C 1.804688 -11.847656 1.6875 -12.085938 1.53125 -12.234375 C 1.375 -12.378906 1.164062 -12.507812 0.90625 -12.625 L 0.90625 -12.9375 L 3.96875 -14.28125 L 4.21875 -14.09375 L 4.21875 -11.703125 C 5.0625 -12.378906 5.988281 -12.972656 7 -13.484375 C 8.007812 -14.003906 9.023438 -14.265625 10.046875 -14.265625 C 12.160156 -14.265625 13.460938 -13.378906 13.953125 -11.609375 C 14.796875 -12.285156 15.738281 -12.894531 16.78125 -13.4375 C 17.820312 -13.988281 18.863281 -14.265625 19.90625 -14.265625 C 21.28125 -14.265625 22.3125 -13.882812 23 -13.125 C 23.695312 -12.363281 24.046875 -11.1875 24.046875 -9.59375 L 24.046875 -3.578125 C 24.046875 -2.429688 24.128906 -1.640625 24.296875 -1.203125 C 24.460938 -0.773438 24.753906 -0.492188 25.171875 -0.359375 L 25.171875 0 L 20.734375 0 L 20.734375 -0.359375 C 21.160156 -0.492188 21.453125 -0.773438 21.609375 -1.203125 C 21.773438 -1.640625 21.859375 -2.429688 21.859375 -3.578125 L 21.859375 -9.078125 C 21.859375 -11.910156 20.785156 -13.328125 18.640625 -13.328125 C 17.835938 -13.328125 17.0625 -13.128906 16.3125 -12.734375 C 15.5625 -12.347656 14.800781 -11.851562 14.03125 -11.25 C 14.144531 -10.78125 14.203125 -10.226562 14.203125 -9.59375 L 14.203125 -3.578125 C 14.203125 -2.429688 14.28125 -1.640625 14.4375 -1.203125 C 14.601562 -0.773438 14.898438 -0.492188 15.328125 -0.359375 L 15.328125 0 L 10.890625 0 L 10.890625 -0.359375 C 11.316406 -0.492188 11.609375 -0.773438 11.765625 -1.203125 C 11.929688 -1.640625 12.015625 -2.429688 12.015625 -3.578125 L 12.015625 -9.078125 C 12.015625 -11.910156 10.941406 -13.328125 8.796875 -13.328125 C 7.992188 -13.328125 7.222656 -13.132812 6.484375 -12.75 C 5.742188 -12.363281 4.988281 -11.882812 4.21875 -11.3125 L 4.21875 -3.578125 C 4.21875 -2.429688 4.296875 -1.640625 4.453125 -1.203125 C 4.617188 -0.773438 4.914062 -0.492188 5.34375 -0.359375 L 5.34375 0 Z M 0.90625 0 "/></g></g></g><g fill="#8174a0" fill-opacity="1"><g transform="translate(138.417065, 26.974478)"><g><path d="M 8.234375 0.25 C 7.191406 0.25 6.210938 0.0390625 5.296875 -0.375 C 4.390625 -0.800781 3.679688 -1.285156 3.171875 -1.828125 L 2.25 0 L 1.96875 0 L 1.96875 -18.484375 C 1.96875 -19.140625 1.925781 -19.628906 1.84375 -19.953125 C 1.757812 -20.285156 1.632812 -20.523438 1.46875 -20.671875 C 1.3125 -20.816406 1.101562 -20.945312 0.84375 -21.0625 L 0.84375 -21.375 L 3.90625 -22.71875 L 4.15625 -22.53125 L 4.15625 -12.34375 C 4.90625 -12.851562 5.722656 -13.300781 6.609375 -13.6875 C 7.503906 -14.070312 8.441406 -14.265625 9.421875 -14.265625 C 10.617188 -14.265625 11.675781 -13.96875 12.59375 -13.375 C 13.519531 -12.78125 14.242188 -11.96875 14.765625 -10.9375 C 15.285156 -9.90625 15.546875 -8.722656 15.546875 -7.390625 C 15.546875 -6.097656 15.265625 -4.867188 14.703125 -3.703125 C 14.140625 -2.546875 13.316406 -1.601562 12.234375 -0.875 C 11.148438 -0.144531 9.816406 0.226562 8.234375 0.25 Z M 4.15625 -4.75 C 4.15625 -4.070312 4.390625 -3.390625 4.859375 -2.703125 C 5.328125 -2.023438 5.941406 -1.457031 6.703125 -1 C 7.460938 -0.539062 8.273438 -0.3125 9.140625 -0.3125 C 10.597656 -0.3125 11.679688 -0.8125 12.390625 -1.8125 C 13.109375 -2.8125 13.46875 -4.128906 13.46875 -5.765625 C 13.46875 -6.554688 13.375 -7.382812 13.1875 -8.25 C 13 -9.125 12.691406 -9.945312 12.265625 -10.71875 C 11.847656 -11.488281 11.296875 -12.113281 10.609375 -12.59375 C 9.929688 -13.082031 9.09375 -13.328125 8.09375 -13.328125 C 7.363281 -13.328125 6.671875 -13.191406 6.015625 -12.921875 C 5.359375 -12.648438 4.738281 -12.316406 4.15625 -11.921875 Z M 4.15625 -4.75 "/></g></g></g><g fill="#8174a0" fill-opacity="1"><g transform="translate(153.54165, 26.974478)"><g><path d="M 7.671875 0.28125 C 6.910156 0.28125 6.132812 0.140625 5.34375 -0.140625 C 4.550781 -0.421875 3.828125 -0.847656 3.171875 -1.421875 C 2.515625 -1.992188 1.988281 -2.707031 1.59375 -3.5625 C 1.207031 -4.425781 1.015625 -5.441406 1.015625 -6.609375 C 1.015625 -8.148438 1.351562 -9.488281 2.03125 -10.625 C 2.71875 -11.769531 3.625 -12.660156 4.75 -13.296875 C 5.875 -13.941406 7.09375 -14.265625 8.40625 -14.265625 C 9.59375 -14.265625 10.601562 -14.03125 11.4375 -13.5625 C 12.269531 -13.101562 12.914062 -12.5 13.375 -11.75 C 13.832031 -11 14.070312 -10.175781 14.09375 -9.28125 L 3.09375 -9.28125 C 3.039062 -8.863281 3.015625 -8.429688 3.015625 -7.984375 C 3.015625 -6.710938 3.257812 -5.582031 3.75 -4.59375 C 4.25 -3.613281 4.953125 -2.847656 5.859375 -2.296875 C 6.773438 -1.753906 7.84375 -1.484375 9.0625 -1.484375 C 10.144531 -1.484375 11.085938 -1.707031 11.890625 -2.15625 C 12.703125 -2.613281 13.425781 -3.207031 14.0625 -3.9375 L 14.3125 -3.6875 C 13.84375 -3.03125 13.28125 -2.394531 12.625 -1.78125 C 11.96875 -1.175781 11.234375 -0.679688 10.421875 -0.296875 C 9.609375 0.0859375 8.691406 0.28125 7.671875 0.28125 Z M 3.171875 -9.640625 L 11.84375 -9.640625 C 11.75 -10.285156 11.519531 -10.921875 11.15625 -11.546875 C 10.789062 -12.171875 10.300781 -12.691406 9.6875 -13.109375 C 9.082031 -13.535156 8.347656 -13.75 7.484375 -13.75 C 6.285156 -13.769531 5.320312 -13.382812 4.59375 -12.59375 C 3.875 -11.8125 3.398438 -10.828125 3.171875 -9.640625 Z M 3.171875 -9.640625 "/></g></g></g><g fill="#8174a0" fill-opacity="1"><g transform="translate(167.007533, 26.974478)"><g><path d="M 0.90625 0 L 0.90625 -0.359375 C 1.332031 -0.492188 1.625 -0.773438 1.78125 -1.203125 C 1.945312 -1.640625 2.03125 -2.429688 2.03125 -3.578125 L 2.03125 -10.046875 C 2.03125 -10.703125 1.984375 -11.191406 1.890625 -11.515625 C 1.804688 -11.847656 1.6875 -12.085938 1.53125 -12.234375 C 1.375 -12.378906 1.164062 -12.507812 0.90625 -12.625 L 0.90625 -12.9375 L 3.96875 -14.28125 L 4.21875 -14.09375 L 4.21875 -10.578125 C 4.445312 -11.117188 4.742188 -11.625 5.109375 -12.09375 C 5.472656 -12.5625 5.859375 -12.945312 6.265625 -13.25 C 6.703125 -13.5625 7.175781 -13.804688 7.6875 -13.984375 C 8.207031 -14.171875 8.804688 -14.265625 9.484375 -14.265625 C 10.046875 -14.265625 10.488281 -14.195312 10.8125 -14.0625 C 11.144531 -13.925781 11.3125 -13.738281 11.3125 -13.5 C 11.3125 -13.195312 11.164062 -12.851562 10.875 -12.46875 C 10.582031 -12.082031 10.179688 -11.890625 9.671875 -11.890625 C 9.296875 -11.890625 8.820312 -11.957031 8.25 -12.09375 C 7.675781 -12.238281 6.976562 -12.4375 6.15625 -12.6875 C 5.894531 -12.5 5.617188 -12.210938 5.328125 -11.828125 C 5.035156 -11.441406 4.789062 -11.015625 4.59375 -10.546875 C 4.394531 -10.078125 4.28125 -9.617188 4.25 -9.171875 L 4.21875 -9.171875 L 4.21875 -3.578125 C 4.21875 -2.429688 4.296875 -1.640625 4.453125 -1.203125 C 4.617188 -0.773438 4.914062 -0.492188 5.34375 -0.359375 L 5.34375 0 Z M 0.90625 0 "/></g></g></g><g clip-path="url(#506f178148)"><path fill="#8174a0" d="M 146.878906 5.707031 C 142.851562 6.449219 142.253906 7.050781 141.511719 11.078125 C 140.769531 7.050781 140.167969 6.449219 136.140625 5.707031 C 140.167969 4.96875 140.769531 4.367188 141.511719 0.339844 C 142.253906 4.367188 142.851562 4.96875 146.878906 5.707031 Z M 146.878906 5.707031 " fill-opacity="1" fill-rule="nonzero"/></g><g clip-path="url(#42f2144925)"><path fill="#8174a0" d="M 34.9375 7.324219 L 38.644531 13.878906 L 34.503906 13.878906 L 31.667969 7.324219 L 34.9375 7.324219 " fill-opacity="1" fill-rule="nonzero"/></g><path fill="#8174a0" d="M 29.691406 7.324219 L 32.527344 13.878906 L 21.164062 13.878906 L 24 7.324219 L 29.691406 7.324219 " fill-opacity="1" fill-rule="nonzero"/><path fill="#8174a0" d="M 18.753906 7.324219 L 22.023438 7.324219 L 19.1875 13.878906 L 15.046875 13.878906 L 18.753906 7.324219 " fill-opacity="1" fill-rule="nonzero"/><path fill="#8174a0" d="M 15.046875 15.1875 L 19.171875 15.1875 L 24.210938 25.5 C 24.273438 25.628906 24.101562 25.742188 24.007812 25.636719 L 15.046875 15.1875 " fill-opacity="1" fill-rule="nonzero"/><g clip-path="url(#b25eb8ec8e)"><path fill="#8174a0" d="M 21.117188 15.1875 L 32.574219 15.1875 L 26.960938 28.226562 C 26.917969 28.324219 26.777344 28.324219 26.734375 28.226562 L 21.117188 15.1875 " fill-opacity="1" fill-rule="nonzero"/></g><g clip-path="url(#91daa4dfdb)"><path fill="#8174a0" d="M 29.480469 25.5 L 34.519531 15.1875 L 38.644531 15.1875 L 29.683594 25.632812 C 29.589844 25.742188 29.417969 25.628906 29.480469 25.5 " fill-opacity="1" fill-rule="nonzero"/></g><path fill="#8174a0" d="M 25.507812 4.671875 L 27.382812 4.257812 L 25.507812 3.84375 L 25.089844 1.964844 L 24.675781 3.84375 L 22.800781 4.257812 L 24.675781 4.675781 L 25.089844 6.550781 L 25.507812 4.671875 " fill-opacity="1" fill-rule="nonzero"/><g clip-path="url(#f1b93c236c)"><path fill="#8174a0" d="M 18.757812 3.996094 L 21.257812 2.890625 L 18.523438 2.839844 L 17.414062 0.339844 L 17.363281 3.074219 L 14.867188 4.183594 L 17.601562 4.234375 L 18.707031 6.730469 L 18.757812 3.996094 " fill-opacity="1" fill-rule="nonzero"/></g><g clip-path="url(#1a40e824ab)"><path fill="#8174a0" d="M 14.835938 9.289062 L 16.304688 8.964844 L 14.835938 8.640625 L 14.511719 7.171875 L 14.183594 8.640625 L 12.714844 8.964844 L 14.1875 9.292969 L 14.511719 10.761719 L 14.835938 9.289062 " fill-opacity="1" fill-rule="nonzero"/></g></svg>